PathFileType	4	(X/Y/Z)	/Users/niels/Desktop/University/Third Semester/Perception and Action/Exam/Gymnastics Motion Tracking/Code for Gym Tracking/Analyzed Data/Start Salto/stsalto_good_id16_1_Sports2D/stsalto_good_id16_1_Sports2D_px_person00.trc
DataRate	CameraRate	NumFrames	NumMarkers	Units	OrigDataRate	OrigDataStartFrame	OrigNumFrames
29.837837837837835	29.837837837837835	11	22	m	29.837837837837835	46	185
Frame#	Time	Hip			RHip			RKnee			RAnkle			RBigToe			RSmallToe			RHeel			LHip			LKnee			LAnkle			LBigToe			LSmallToe			LHeel			Neck			Head			Nose			RShoulder			RElbow			RWrist			LShoulder			LElbow			LWrist		
		X1	Y1	Z1	X2	Y2	Z2	X3	Y3	Z3	X4	Y4	Z4	X5	Y5	Z5	X6	Y6	Z6	X7	Y7	Z7	X8	Y8	Z8	X9	Y9	Z9	X10	Y10	Z10	X11	Y11	Z11	X12	Y12	Z12	X13	Y13	Z13	X14	Y14	Z14	X15	Y15	Z15	X16	Y16	Z16	X17	Y17	Z17	X18	Y18	Z18	X19	Y19	Z19	X20	Y20	Z20	X21	Y21	Z21	X22	Y22	Z22
46	1.5416666666666667	0.6957316711985815	-0.34322006835063845	0.0	0.6883915918421327	-0.34020827627515693	0.0	0.6406235598474375	-0.47063751105751545	0.0	0.5401362641015142	-0.5633226317192042	0.0	0.535009653011667	-0.6324383040238593	0.0	0.5240513612067143	-0.6249318380286604	0.0	0.5195244132992795	-0.5673369808575547	0.0	0.7005241367207853	-0.35338023344651315	0.0	0.6591287917711198	-0.4842777552451081	0.0	0.576927823613486	-0.5845743217802329	0.0	0.5685682484876434	-0.6378057829759641	0.0	0.5759867548236451	-0.6348908210118996	0.0	0.5591388688540317	-0.5923750580528838	0.0	0.8705661218287721	-0.3464204636408745	0.0	0.9487911039287303	-0.38231697076927723	0.0	0.8989268144888036	-0.3887664330895378	0.0	0.87332771230689	-0.3427591616413094	0.0	0.855036736138086	-0.4219087175225082	0.0	0.872238104144823	-0.5008625231552483	0.0	0.8578529389493819	-0.3478405242512997	0.0	0.8465723275966841	-0.4348008614759283	0.0	0.8621167023094045	-0.5000218025022658	0.0
47	1.57518115942029	0.7082618253566453	-0.33196973348790043	0.0	0.7015052183745136	-0.32966683628546195	0.0	0.6500025086405545	-0.4597565352665377	0.0	0.5417890223590026	-0.5440245218333052	0.0	0.5320980817171035	-0.6128911970970442	0.0	0.5216645346502351	-0.6049471350731986	0.0	0.52038977415076	-0.5471900090825033	0.0	0.7120100437106878	-0.34295151743946956	0.0	0.6651517438514172	-0.47282792007139607	0.0	0.579456843359551	-0.5689657730064821	0.0	0.571414618648689	-0.6213488088644223	0.0	0.5784111001024648	-0.619528506694604	0.0	0.5609953306244552	-0.5771226614550489	0.0	0.8816363690456571	-0.3494242980240298	0.0	0.957586303570468	-0.3905995154753636	0.0	0.9069788091006722	-0.3951544459317388	0.0	0.8845608783254226	-0.34638269220508716	0.0	0.8559278857218829	-0.41919189122842215	0.0	0.8647691197298181	-0.5014507035129405	0.0	0.8690587017421313	-0.34962643826723966	0.0	0.8455990037778237	-0.43175810548689414	0.0	0.8530360067983381	-0.49847318422492753	0.0
48	1.608695652173913	0.7206617068417498	-0.3210966756162764	0.0	0.7149271279862351	-0.32020315280205613	0.0	0.659244137667668	-0.44908044727897584	0.0	0.5439590457366911	-0.5248064074256125	0.0	0.52878077387327	-0.5928583765191726	0.0	0.5188486829785252	-0.584473033522356	0.0	0.5215137730070798	-0.527313974222963	0.0	0.7233864545223637	-0.3328532100728952	0.0	0.6710658893095998	-0.461340011769723	0.0	0.5821597112981406	-0.5535179937794137	0.0	0.5743335606981839	-0.6050637140515345	0.0	0.5811164086044543	-0.6041120090641371	0.0	0.5634445198612276	-0.562005185530186	0.0	0.8918689176651782	-0.35290549179115344	0.0	0.9651187256500994	-0.39855214337332046	0.0	0.9141083391553023	-0.4014998360651691	0.0	0.8948305024151131	-0.3506667157370425	0.0	0.8561738120494654	-0.4164046162580412	0.0	0.8567474525535295	-0.5005670738239553	0.0	0.8802183893719326	-0.35092852431214955	0.0	0.8447037573727706	-0.426258542216369	0.0	0.8443080086913837	-0.4947296439522591	0.0
49	1.6422101449275364	0.7332338783574696	-0.3105567854678657	0.0	0.7286067237887782	-0.31161983555834627	0.0	0.6680232354532472	-0.4381958346737143	0.0	0.5467257005338492	-0.5056549960537298	0.0	0.5250771533596321	-0.5723298925434329	0.0	0.5156294505834443	-0.5634988032824764	0.0	0.5231682157699235	-0.5077424436903306	0.0	0.7348997227394471	-0.32308953881453817	0.0	0.6769625265284577	-0.44968707872215474	0.0	0.585150366246369	-0.5378566528005005	0.0	0.5772857641650464	-0.5887187331196788	0.0	0.583914876265406	-0.5884833169367032	0.0	0.5665031198239152	-0.5465881874501375	0.0	0.9018940438428819	-0.3568126428235143	0.0	0.9719925440559113	-0.40553705041966637	0.0	0.9210980510520814	-0.4074325937226815	0.0	0.9042065352154158	-0.35526566765555945	0.0	0.8557498242404735	-0.414142363631046	0.0	0.8481969011447135	-0.49849371884948124	0.0	0.8915547496974335	-0.3522129762463714	0.0	0.8441482518265188	-0.41943975577285963	0.0	0.8364311544801597	-0.4898837662590393	0.0
50	1.6757246376811596	0.7460505058285671	-0.30047569793089446	0.0	0.7421141082063794	-0.303692820970604	0.0	0.6760189485429696	-0.4270692467085448	0.0	0.5500871128149702	-0.48686361041626613	0.0	0.5215199019218105	-0.5517791724467304	0.0	0.5124755255731968	-0.5425169735842146	0.0	0.5256871772242018	-0.48880644175127036	0.0	0.7465840158475674	-0.31379241505796485	0.0	0.6828921341151808	-0.4380317819527048	0.0	0.5884903591779342	-0.521659673961471	0.0	0.5802434576450596	-0.5721404889568896	0.0	0.5865292047559024	-0.572573315886863	0.0	0.5700408869565244	-0.5306070677806134	0.0	0.9122977481565652	-0.3611914653590019	0.0	0.9790745368628	-0.41102978728246625	0.0	0.9287989437457099	-0.41245092007532835	0.0	0.9127485165417784	-0.359887728883715	0.0	0.8547894731810174	-0.41252930628737394	0.0	0.8390484920602349	-0.4952524563584479	0.0	0.9030879453976292	-0.35402092459124773	0.0	0.8442241669666843	-0.412807778701833	0.0	0.8298659650852209	-0.484644369326746	0.0
51	1.7092391304347827	0.7588963135450769	-0.29137773621746654	0.0	0.7549385611206725	-0.2964677498789278	0.0	0.6831364040834195	-0.41615429780368607	0.0	0.5540942066989193	-0.4687789131974631	0.0	0.5191287681582162	-0.5318887175262518	0.0	0.5103910782364889	-0.5222295638621914	0.0	0.529379606022881	-0.47074353118955065	0.0	0.7581733937784296	-0.3053349004565085	0.0	0.6888601617459992	-0.42683557325574706	0.0	0.5920308034264541	-0.5046930937790742	0.0	0.5828590703916592	-0.555132317454797	0.0	0.5883375336134286	-0.5562487066966637	0.0	0.5736270195573309	-0.5138184751937999	0.0	0.923484329702015	-0.36625795300177477	0.0	0.9871730022300909	-0.414747009519041	0.0	0.9378366043412475	-0.41615085306065014	0.0	0.9207417017792384	-0.36442183093308095	0.0	0.8538083633060828	-0.4111448225826608	0.0	0.8292745400867478	-0.4904708025609465	0.0	0.9146925558604407	-0.35688109511152355	0.0	0.8452086069960972	-0.40754040633883026	0.0	0.8247107152034838	-0.47901123626416464	0.0
52	1.742753623188406	0.7715443137667091	-0.28387574362464335	0.0	0.7670517646368169	-0.2901177407269174	0.0	0.6897110123670853	-0.40605002657572314	0.0	0.558939386474739	-0.45137789996167565	0.0	0.5190704897533845	-0.5128340750766553	0.0	0.5106894310515407	-0.5027740722029942	0.0	0.5345268211869159	-0.4532523961909829	0.0	0.7695249809728155	-0.2980484036837811	0.0	0.6949341217458376	-0.41655562487037584	0.0	0.5955515718890089	-0.48682287997254464	0.0	0.5844562703964447	-0.5374489068096429	0.0	0.5885718028506662	-0.5392569340022395	0.0	0.57675667178975	-0.4958950110854687	0.0	0.9355631195691577	-0.3722650932001297	0.0	0.9965912617219169	-0.41711492514247706	0.0	0.9484439588203332	-0.4184791127431406	0.0	0.9287916850414907	-0.3689967743148511	0.0	0.8534692144754297	-0.4093063750787862	0.0	0.8192390120397068	-0.4835761216201333	0.0	0.9262167023224244	-0.36112223619736905	0.0	0.8473634026218356	-0.4039707450030888	0.0	0.820744442499163	-0.47254114750087445	0.0
53	1.776268115942029	0.7841148244478479	-0.27807989201051375	0.0	0.779015793256138	-0.28451658990357453	0.0	0.6963885612144493	-0.3969050229344606	0.0	0.5649338247363342	-0.43397006531160365	0.0	0.5222221017731603	-0.4938326277426257	0.0	0.5144412353782342	-0.48315832772564543	0.0	0.5413869759057869	-0.43534512339453835	0.0	0.781035426246524	-0.29189962973854505	0.0	0.7013494331666021	-0.4072840280727494	0.0	0.5991864930136923	-0.4682413011377754	0.0	0.5846713063069366	-0.5189899222078097	0.0	0.5872129249258107	-0.5214362789684985	0.0	0.5794775934307437	-0.4767849478521535	0.0	0.9481195691490233	-0.3792287157853641	0.0	1.0063942368337422	-0.41969598570238054	0.0	0.9599590295468164	-0.4201263283253896	0.0	0.9374205949718605	-0.3738459912811187	0.0	0.8543430964844856	-0.4063547215925315	0.0	0.8099193363167012	-0.4740084343838284	0.0	0.9375325087946111	-0.3666877487163193	0.0	0.8510367488632185	-0.401403413050031	0.0	0.8180728097685334	-0.46462288586771844	0.0
54	1.8097826086956523	0.797078892533913	-0.2734037190517998	0.0	0.7915019580137794	-0.2790737361220987	0.0	0.7037669204767076	-0.3881907255020555	0.0	0.5724007972267299	-0.41543993403046325	0.0	0.5288684959815795	-0.47361314773580393	0.0	0.5219500507390743	-0.46178288921295946	0.0	0.5500590947311494	-0.4157493738630951	0.0	0.7933814776433106	-0.2864910182262686	0.0	0.7084181307782605	-0.3986146993750878	0.0	0.6035027696620092	-0.4496235384439917	0.0	0.5840791447527266	-0.4999729140324345	0.0	0.5855992336755167	-0.5029477410159249	0.0	0.5826467924375918	-0.4570033825518424	0.0	0.9600071264811132	-0.3867427253902256	0.0	1.0141429704895324	-0.42484534496270215	0.0	0.9703044544691766	-0.42260122821746515	0.0	0.9464426272212819	-0.37898744276335233	0.0	0.8569179266096686	-0.40187154624879184	0.0	0.8026039604485887	-0.46144669504978797	0.0	0.9482891065458513	-0.37308092532253445	0.0	0.8566263844487751	-0.3986049988798486	0.0	0.8175369786242297	-0.45474262279414285	0.0
55	1.8432971014492756	0.8108214571086395	-0.2690178864215504	0.0	0.8048188080758166	-0.2732165292413905	0.0	0.7121243997233008	-0.37916805061264514	0.0	0.5814453657531976	-0.395247752843257	0.0	0.538458796856456	-0.45165231731961647	0.0	0.532479937032261	-0.4380676774026538	0.0	0.5602991583104434	-0.3940211627997128	0.0	0.8068527387177832	-0.28132760214719227	0.0	0.7163288659653291	-0.3898727969141343	0.0	0.6089695821320377	-0.4316711075631016	0.0	0.583870906262652	-0.48092209413977777	0.0	0.5855949355633727	-0.4842841843971684	0.0	0.5872513520503113	-0.43724363717227505	0.0	0.9696420486882982	-0.3939944110413815	0.0	1.0170355797555923	-0.4340688115799681	0.0	0.9768743117565565	-0.4270659572626951	0.0	0.9548341561432383	-0.3840456103735948	0.0	0.8613269135078206	-0.3959095137307214	0.0	0.7983203418997884	-0.4461191776783984	0.0	0.9577935381422888	-0.37948011539097665	0.0	0.8643148422788627	-0.39471244070833256	0.0	0.820407940268702	-0.44292172954159265	0.0
56	1.8768115942028987	0.8253943414233743	-0.2644002829943991	0.0	0.8189341067459577	-0.266973364180034	0.0	0.7214529085636058	-0.3694505340806422	0.0	0.5918264749209439	-0.3739662562129828	0.0	0.5496184258045181	-0.42860997162148445	0.0	0.5444474313385003	-0.41310941381263916	0.0	0.5715960195602463	-0.3710657699400474	0.0	0.8211985432207918	-0.27615102731718044	0.0	0.7251855351174021	-0.3805359545227338	0.0	0.6155428895263809	-0.41465439365526235	0.0	0.5850038457476634	-0.4624619908046447	0.0	0.5881097294045009	-0.4660465638668521	0.0	0.5935625861677547	-0.41802891643095014	0.0	0.9757482272869904	-0.40014377014867386	0.0	1.013587207438532	-0.44660789683806545	0.0	0.9781622460804675	-0.433132899687163	0.0	0.9612957833537352	-0.3884375507919344	0.0	0.8669706749358224	-0.3889823274341623	0.0	0.7972945817514344	-0.42884486016573076	0.0	0.9653403973552686	-0.3851640610903289	0.0	0.8738091292468495	-0.3897041303929436	0.0	0.8276543155513469	-0.4299201833058858	0.0
